cut_grf
version=1
nRows=52
nColumns=10
inDegrees=no
endheader
time	ground_force_1_vx	ground_force_1_vy	ground_force_1_vz	ground_force_1_px	ground_force_1_py	ground_force_1_pz	ground_moment_1_mx	ground_moment_1_my	ground_moment_1_mz
      0.53400000	     38.78301499	   1310.54798468	   -472.05827094	      0.63663435	      0.00000000	     -0.33990126	      0.00000000	      3.96720333	     -0.00000000
      0.53500000	     35.98212300	   1313.64272888	   -473.36832198	      0.63630959	      0.00000000	     -0.33984407	      0.00000000	      3.84647328	     -0.00000000
      0.53600000	     33.31594371	   1316.35415547	   -474.63096384	      0.63595613	      0.00000000	     -0.33977925	      0.00000000	      3.73746965	     -0.00000000
      0.53700000	     30.77748553	   1318.69676674	   -475.85003712	      0.63557544	      0.00000000	     -0.33970689	      0.00000000	      3.64018676	     -0.00000000
      0.53800000	     28.35920246	   1320.68619368	   -477.02891104	      0.63516912	      0.00000000	     -0.33962715	      0.00000000	      3.55450739	     -0.00000000
      0.53900000	     26.05308408	   1322.33904012	   -478.17049549	      0.63473888	      0.00000000	     -0.33954025	      0.00000000	      3.48021002	     -0.00000000
      0.54000000	     23.85074498	   1323.67272369	   -479.27726099	      0.63428650	      0.00000000	     -0.33944650	      0.00000000	      3.41697730	     -0.00000000
      0.54100000	     21.74351308	   1324.70531494	   -480.35126496	      0.63381383	      0.00000000	     -0.33934625	      0.00000000	      3.36440548	     -0.00000000
      0.54200000	     19.72251598	   1325.45537599	   -481.39418345	      0.63332278	      0.00000000	     -0.33923992	      0.00000000	      3.32201466	     -0.00000000
      0.54300000	     17.77876487	   1325.94180033	   -482.40734686	      0.63281526	      0.00000000	     -0.33912796	      0.00000000	      3.28925967	     -0.00000000
      0.54400000	     15.90323526	   1326.18365503	   -483.39177858	      0.63229321	      0.00000000	     -0.33901085	      0.00000000	      3.26554124	     -0.00000000
      0.54500000	     14.08694415	   1326.20002722	   -484.34823539	      0.63175853	      0.00000000	     -0.33888913	      0.00000000	      3.25021746	     -0.00000000
      0.54600000	     12.32102286	   1326.00987595	   -485.27724859	      0.63121312	      0.00000000	     -0.33876332	      0.00000000	      3.24261514	     -0.00000000
      0.54700000	     10.59678536	   1325.63189113	   -486.17916479	      0.63065882	      0.00000000	     -0.33863398	      0.00000000	      3.24204098	     -0.00000000
      0.54800000	      8.90579142	   1325.08436054	   -487.05418575	      0.63009742	      0.00000000	     -0.33850166	      0.00000000	      3.24779228	     -0.00000000
      0.54900000	      7.23990430	   1324.38504644	   -487.90240625	      0.62953064	      0.00000000	     -0.33836693	      0.00000000	      3.25916722	     -0.00000000
      0.55000000	      5.59134273	   1323.55107236	   -488.72384961	      0.62896010	      0.00000000	     -0.33823034	      0.00000000	      3.27547429	     -0.00000000
      0.55100000	      3.95272671	   1322.59882130	   -489.51850033	      0.62838734	      0.00000000	     -0.33809242	      0.00000000	      3.29604106	     -0.00000000
      0.55200000	      2.31711710	   1321.54384579	   -490.28633333	      0.62781381	      0.00000000	     -0.33795368	      0.00000000	      3.32022193	     -0.00000000
      0.55300000	      0.67804875	   1320.40079037	   -491.02733976	      0.62724083	      0.00000000	     -0.33781463	      0.00000000	      3.34740495	     -0.00000000
      0.55400000	     -0.97044295	   1319.18332691	   -491.74154909	      0.62666962	      0.00000000	     -0.33767572	      0.00000000	      3.37701762	     -0.00000000
      0.55500000	     -2.63380197	   1317.90410285	   -492.42904742	      0.62610128	      0.00000000	     -0.33753741	      0.00000000	      3.40853160	     -0.00000000
      0.55600000	     -4.31693806	   1316.57470233	   -493.08999206	      0.62553680	      0.00000000	     -0.33740008	      0.00000000	      3.44146641	     -0.00000000
      0.55700000	     -6.02421945	   1315.20562013	   -493.72462244	      0.62497703	      0.00000000	     -0.33726410	      0.00000000	      3.47539201	     -0.00000000
      0.55800000	     -7.75947170	   1313.80624805	   -494.33326757	      0.62442273	      0.00000000	     -0.33712981	      0.00000000	      3.50993051	     -0.00000000
      0.55900000	     -9.52598229	   1312.38487328	   -494.91635012	      0.62387453	      0.00000000	     -0.33699748	      0.00000000	      3.54475676	     -0.00000000
      0.56000000	    -11.32651069	   1310.94868824	   -495.47438750	      0.62333294	      0.00000000	     -0.33686738	     -0.00000000	      3.57959818	     -0.00000000
      0.56100000	    -13.16330345	   1309.50381122	   -496.00799012	      0.62279839	      0.00000000	     -0.33673971	     -0.00000000	      3.61423373	      0.00000000
      0.56200000	    -15.03811382	   1308.05531696	   -496.51785723	      0.62227118	      0.00000000	     -0.33661465	     -0.00000000	      3.64849218	      0.00000000
      0.56300000	    -16.95222545	   1306.60727637	   -497.00477052	      0.62175154	      0.00000000	     -0.33649232	     -0.00000000	      3.68224967	      0.00000000
      0.56400000	    -18.90647957	   1305.16280433	   -497.46958593	      0.62123959	      0.00000000	     -0.33637283	     -0.00000000	      3.71542683	      0.00000000
      0.56500000	    -20.90130507	   1303.72411458	   -497.91322392	      0.62073540	      0.00000000	     -0.33625623	     -0.00000000	      3.74798540	      0.00000000
      0.56600000	    -22.93675103	   1302.29258058	   -498.33665855	      0.62023895	      0.00000000	     -0.33614256	     -0.00000000	      3.77992444	      0.00000000
      0.56700000	    -25.01252092	   1300.86880121	   -498.74090553	      0.61975015	      0.00000000	     -0.33603181	     -0.00000000	      3.81127637	      0.00000000
      0.56800000	    -27.12800802	   1299.45267019	   -499.12700976	      0.61926887	      0.00000000	     -0.33592394	     -0.00000000	      3.84210271	      0.00000000
      0.56900000	    -29.28233140	   1298.04344803	   -499.49603235	      0.61879494	      0.00000000	     -0.33581891	     -0.00000000	      3.87248980	      0.00000000
      0.57000000	    -31.47437201	   1296.63983558	   -499.84903759	      0.61832814	      0.00000000	     -0.33571663	     -0.00000000	      3.90254441	      0.00000000
      0.57100000	    -33.70280821	   1295.24004778	   -500.18707987	      0.61786823	      0.00000000	     -0.33561700	     -0.00000000	      3.93238944	      0.00000000
      0.57200000	    -35.96615045	   1293.84188690	   -500.51119090	      0.61741495	      0.00000000	     -0.33551989	     -0.00000000	      3.96215968	      0.00000000
      0.57300000	    -38.26277446	   1292.44281407	   -500.82236730	      0.61696802	      0.00000000	     -0.33542518	     -0.00000000	      3.99199771	      0.00000000
      0.57400000	    -40.59095277	   1291.04001828	   -501.12155872	      0.61652716	      0.00000000	     -0.33533271	     -0.00000000	      4.02205008	      0.00000000
      0.57500000	    -42.94888404	   1289.63048196	   -501.40965666	      0.61609210	      0.00000000	     -0.33524233	     -0.00000000	      4.05246363	      0.00000000
      0.57600000	    -45.33472006	   1288.21104253	   -501.68748387	      0.61566257	      0.00000000	     -0.33515388	     -0.00000000	      4.08338221	      0.00000000
      0.57700000	    -47.74659007	   1286.77844906	   -501.95578476	      0.61523830	      0.00000000	     -0.33506718	     -0.00000000	      4.11494365	      0.00000000
      0.57800000	    -50.18262233	   1285.32941383	   -502.21521646	      0.61481906	      0.00000000	     -0.33498208	     -0.00000000	      4.14727706	      0.00000000
      0.57900000	    -52.64096276	   1283.86065817	   -502.46634090	      0.61440463	      0.00000000	     -0.33489841	     -0.00000000	      4.18050058	      0.00000000
      0.58000000	    -55.11979064	   1282.36895254	   -502.70961781	      0.61399482	      0.00000000	     -0.33481600	     -0.00000000	      4.21471938	      0.00000000
      0.58100000	    -57.61733133	   1280.85115062	   -502.94539861	      0.61358945	      0.00000000	     -0.33473471	     -0.00000000	      4.25002410	      0.00000000
      0.58200000	    -60.13186603	   1279.30421755	   -503.17392143	      0.61318840	      0.00000000	     -0.33465437	     -0.00000000	      4.28648961	      0.00000000
      0.58300000	    -62.66173866	   1277.72525239	   -503.39530702	      0.61279155	      0.00000000	     -0.33457486	     -0.00000000	      4.32417418	      0.00000000
      0.58400000	    -65.20536003	   1276.11150502	   -503.60955577	      0.61239883	      0.00000000	     -0.33449605	     -0.00000000	      4.36311895	      0.00000000
      0.58500000	    -67.76120926	   1274.46038784	   -503.81654572	      0.61201019	      0.00000000	     -0.33441782	     -0.00000000	      4.40334774	      0.00000000
